<svg width="256" height="256" viewBox="0 0 256 256" fill="none" xmlns="http://www.w3.org/2000/svg">
<g clip-path="url(#clip0)">
<rect width="256" height="256" fill="#37B47E"/>
<path fill-rule="evenodd" clip-rule="evenodd" d="M-241 186.667L-230.049 167.407C-219.743 148.148 -197.841 109.63 -176.583 117.333C-155.326 125.037 -133.424 178.963 -112.167 190.519C-90.9092 202.074 -69.0075 171.259 -47.75 175.111C-26.4925 178.963 -4.59086 217.481 16.6666 225.185C37.9241 232.889 59.8258 209.778 81.0833 202.074C102.341 194.37 124.242 202.074 145.5 202.074C166.757 202.074 188.659 194.37 209.917 178.963C231.174 163.556 253.076 140.444 274.333 128.889C295.591 117.333 317.492 117.333 338.75 121.185C360.007 125.037 381.909 132.741 403.167 125.037C424.424 117.333 446.326 94.2222 467.583 78.8148C488.841 63.4074 510.742 55.7037 521.049 51.8519L532 48V256H521.049C510.742 256 488.841 256 467.583 256C446.326 256 424.424 256 403.167 256C381.909 256 360.007 256 338.75 256C317.492 256 295.591 256 274.333 256C253.076 256 231.174 256 209.917 256C188.659 256 166.757 256 145.5 256C124.242 256 102.341 256 81.0833 256C59.8258 256 37.9241 256 16.6666 256C-4.59086 256 -26.4925 256 -47.75 256C-69.0075 256 -90.9092 256 -112.167 256C-133.424 256 -155.326 256 -176.583 256C-197.841 256 -219.743 256 -230.049 256H-241V186.667Z" fill="#31A27C"/>
<path fill-rule="evenodd" clip-rule="evenodd" d="M-1 176L9.70833 191.829C20.4167 207.658 41.8333 239.316 63.25 241.578C84.6667 243.839 106.083 216.703 127.5 212.181C148.917 207.658 170.333 225.748 191.75 232.532C213.167 239.316 234.583 234.794 245.292 232.532L256 230.271V256H245.292C234.583 256 213.167 256 191.75 256C170.333 256 148.917 256 127.5 256C106.083 256 84.6667 256 63.25 256C41.8333 256 20.4167 256 9.70833 256H-1V176Z" fill="#91D2B2"/>
<path fill-rule="evenodd" clip-rule="evenodd" d="M178 128.079C178 154.944 157.477 176.967 131.425 179C128.884 170.997 127.514 162.467 127.514 153.604C127.514 146.676 127.495 147.822 127.495 140.897C127.514 151.312 132.466 160.563 140.124 166.367C146.402 161.977 151.637 156.192 155.411 149.445C167.647 127.552 146.402 97.1375 127.495 83.386C108.626 97.0913 87.344 127.533 99.5795 149.436C104.916 158.992 113.213 166.625 123.201 171.08L121.848 178.824C96.6188 175.996 77 154.353 77 128.079C77 99.8638 99.6069 77 127.495 77C155.384 77 178 99.8638 178 128.079Z" fill="white"/>
<path d="M39.3318 31H103.636C107.706 31 111 34.2096 111 38.1744V62.0889C111 66.0537 107.706 69.2633 103.636 69.2633H80.5757L83.7409 76.8152L69.8206 69.2633H39.3641C35.2946 69.2633 32.0002 66.0537 32.0002 62.0889V38.1744C31.9679 34.2411 35.2623 31 39.3318 31Z" fill="#9B5C8F"/>
<path d="M36.4987 37.5391C36.9483 36.9446 37.6227 36.6318 38.5219 36.5692C40.1597 36.444 41.091 37.1949 41.3158 38.8219C42.3114 45.361 43.4032 50.8989 44.5593 55.4356L51.5922 42.3887C52.2345 41.1997 53.0374 40.574 54.0008 40.5114C55.4138 40.4175 56.2809 41.2936 56.6341 43.1396C57.437 47.3008 58.4646 50.8363 59.6849 53.8399C60.5199 45.8929 61.9329 40.1672 63.924 36.6318C64.4057 35.7557 65.1122 35.3177 66.0435 35.2551C66.7821 35.1925 67.4565 35.4115 68.0666 35.8809C68.6768 36.3502 68.9979 36.9446 69.0622 37.6642C69.0943 38.2274 68.9979 38.6967 68.741 39.166C67.4886 41.4187 66.4609 45.2045 65.626 50.4608C64.8231 55.5607 64.5341 59.5342 64.7268 62.3814C64.791 63.1636 64.6626 63.8519 64.3414 64.4464C63.9561 65.1347 63.378 65.5101 62.6394 65.5727C61.8044 65.6353 60.9374 65.2598 60.1024 64.4151C57.1158 61.4428 54.7394 56.9999 53.0053 51.0866C50.9179 55.0914 49.3764 58.095 48.3809 60.0974C46.4861 63.6329 44.8805 65.4476 43.5317 65.5414C42.6646 65.604 41.926 64.8844 41.2837 63.3826C39.6459 59.2839 37.8796 51.3682 35.9849 39.6354C35.8565 38.8219 36.0492 38.1023 36.4987 37.5391ZM105.511 42.4512C104.355 40.4801 102.653 39.2912 100.373 38.8219C99.763 38.6967 99.1849 38.6342 98.639 38.6342C95.5561 38.6342 93.0512 40.1985 91.0922 43.3273C89.4223 45.9867 88.5874 48.9278 88.5874 52.1504C88.5874 54.5595 89.1012 56.6245 90.1288 58.3453C91.2849 60.3164 92.987 61.5053 95.267 61.9747C95.8772 62.0998 96.4552 62.1624 97.0012 62.1624C100.116 62.1624 102.621 60.598 104.548 57.4692C106.218 54.7785 107.053 51.8375 107.053 48.6149C107.085 46.1745 106.539 44.1408 105.511 42.4512ZM101.465 51.1179C101.015 53.1829 100.213 54.7159 99.0244 55.7484C98.0931 56.5619 97.226 56.9061 96.4231 56.7496C95.6524 56.5932 95.0101 55.9362 94.5284 54.7159C94.1431 53.746 93.9504 52.7761 93.9504 51.8688C93.9504 51.0866 94.0146 50.3044 94.1752 49.5848C94.4642 48.302 95.0101 47.0505 95.8772 45.8616C96.937 44.3285 98.0609 43.7027 99.217 43.9217C99.9878 44.0782 100.63 44.7352 101.112 45.9554C101.497 46.9254 101.69 47.8953 101.69 48.8026C101.69 49.6161 101.626 50.3983 101.465 51.1179ZM85.4081 42.4512C84.252 40.4801 82.5179 39.2912 80.2699 38.8219C79.6597 38.6967 79.0817 38.6342 78.5357 38.6342C75.4528 38.6342 72.9479 40.1985 70.989 43.3273C69.3191 45.9867 68.4841 48.9278 68.4841 52.1504C68.4841 54.5595 68.9979 56.6245 70.0256 58.3453C71.1817 60.3164 72.8837 61.5053 75.1638 61.9747C75.774 62.0998 76.352 62.1624 76.8979 62.1624C80.013 62.1624 82.5179 60.598 84.4447 57.4692C86.1146 54.7785 86.9496 51.8375 86.9496 48.6149C86.9496 46.1745 86.4357 44.1408 85.4081 42.4512ZM81.3296 51.1179C80.88 53.1829 80.0772 54.7159 78.889 55.7484C77.9577 56.5619 77.0906 56.9061 76.2878 56.7496C75.517 56.5932 74.8748 55.9362 74.3931 54.7159C74.0077 53.746 73.815 52.7761 73.815 51.8688C73.815 51.0866 73.8792 50.3044 74.0398 49.5848C74.3288 48.302 74.8748 47.0505 75.7418 45.8616C76.8016 44.3285 77.9256 43.7027 79.0817 43.9217C79.8524 44.0782 80.4947 44.7352 80.9764 45.9554C81.3618 46.9254 81.5544 47.8953 81.5544 48.8026C81.5866 49.6161 81.4902 50.3983 81.3296 51.1179Z" fill="white"/>
</g>
<defs>
<clipPath id="clip0">
<rect width="256" height="256" fill="white"/>
</clipPath>
</defs>
</svg>
